<?xml version="1.0" standalone="no"?>
<svg width="800" height="800" title="polygons" version="1.1" viewBox="0 0 800 800" xmlns="http://www.w3.org/2000/svg" class="svg-paper"><!----> <g><desc>pwidth:800;pheight:800;pcolor:;seed:10};sf:i+i*7;rf:10*sin(i/2);xf:400;yf:400;qt:39;sd:9;rn:2;minrd:56;maxrd:50;mina:260;maxa:360;cv:curveCardinalClosed;rd:false</desc> <path stroke="#000000" stroke-width="0.4mm" fill="none" d="M351.50,428C345.50,417.61,392.12,456.73,380.85,452.62C369.57,448.52,430.43,448.52,419.15,452.62C407.88,456.73,454.50,417.61,448.50,428C442.50,438.39,453.07,378.46,455.15,390.28C457.23,402.09,426.80,349.39,436.00,357.10C445.19,364.81,388.00,344,400,344C412.00,344,354.81,364.81,364.00,357.10C373.20,349.39,342.77,402.09,344.85,390.28C346.93,378.46,357.50,438.39,351.50,428"/><path stroke="#000000" stroke-width="0.4mm" fill="none" d="M347.44,436.52C339.62,425.26,396.45,465.36,383.21,461.76C369.98,458.16,439.29,452.35,426.84,458.10C414.39,463.85,463.75,414.85,457.91,427.26C452.07,439.66,458.38,370.40,461.88,383.66C465.38,396.92,425.69,339.80,436.90,347.71C448.10,355.61,380.99,337.37,394.65,336.22C408.32,335.08,345.18,364.24,354.91,354.58C364.64,344.92,335.02,407.85,336.26,394.19C337.51,380.54,355.27,447.78,347.44,436.52"/><path stroke="#000000" stroke-width="0.4mm" fill="none" d="M343.59,444.74C334.00,432.65,400.65,473.63,385.54,470.53C370.43,467.44,447.83,455.99,434.26,463.33C420.69,470.67,472.63,412.14,466.95,426.49C461.28,440.83,463.44,362.62,468.31,377.26C473.19,391.89,424.57,330.59,437.71,338.67C450.85,346.75,374.20,331.03,389.46,328.78C404.72,326.52,335.91,363.75,346.15,352.21C356.39,340.67,327.60,413.43,328.03,398.01C328.45,382.59,353.17,456.82,343.59,444.74"/><path stroke="#000000" stroke-width="0.4mm" fill="none" d="M338.69,451.40C327.68,438.26,402.95,481.76,386.07,478.78C369.19,475.79,454.82,460.74,439.97,469.30C425.12,477.86,481.03,411.29,475.16,427.39C469.29,443.50,469.33,356.56,475.19,372.67C481.04,388.78,425.19,322.16,440.03,330.74C454.87,339.31,369.26,324.18,386.14,321.21C403.02,318.24,327.72,361.68,338.74,348.55C349.76,335.42,319.99,417.11,320.00,399.97C320.01,382.82,349.71,464.53,338.69,451.40"/><path stroke="#000000" stroke-width="0.4mm" fill="none" d="M331.70,455.49C319.81,440.86,401.86,489.98,383.35,486.41C364.83,482.84,459.26,467.73,442.79,476.90C426.31,486.07,488.93,413.79,482.21,431.40C475.48,449.02,476.99,353.40,483.16,371.22C489.33,389.03,429.02,314.81,445.20,324.50C461.38,334.18,367.47,316.09,386.09,313.11C404.71,310.13,321.15,356.62,333.49,342.37C345.84,328.12,311.71,417.46,312.01,398.61C312.31,379.75,343.59,470.12,331.70,455.49"/><path stroke="#000000" stroke-width="0.4mm" fill="none" d="M322.32,456.41C310.23,439.76,396.71,498.12,376.75,493.14C356.79,488.16,460.55,477.28,442.06,486.30C423.57,495.31,496.06,420.28,487.69,439.07C479.32,457.86,486.62,353.79,492.29,373.56C497.95,393.34,436.65,308.92,453.70,320.43C470.75,331.93,369.53,306.67,389.99,304.52C410.45,302.38,316.67,348.09,330.96,333.29C345.25,318.50,302.80,413.80,304.24,393.28C305.68,372.76,334.41,473.05,322.32,456.41"/><path stroke="#000000" stroke-width="0.4mm" fill="none" d="M311.24,454.20C299.63,435.18,387.97,505.68,366.85,498.57C345.73,491.47,458.71,488.69,437.97,496.82C417.22,504.96,501.98,430.20,491.32,449.77C480.66,469.33,497.54,357.58,501.94,379.42C506.35,401.27,447.45,304.81,464.87,318.71C482.29,332.61,375.16,296.58,397.44,296.03C419.72,295.48,314.50,336.74,331.21,322.00C347.92,307.26,293.84,406.50,297.17,384.47C300.49,362.44,322.85,473.22,311.24,454.20"/><path stroke="#000000" stroke-width="0.4mm" fill="none" d="M299.76,449.96C289.06,428.48,377.33,512.28,355.33,502.70C333.32,493.13,454.81,500.58,431.80,507.39C408.78,514.20,506.63,441.82,493.39,461.83C480.14,481.84,508.57,363.49,511.28,387.34C514.00,411.18,459.70,302.25,477.11,318.77C494.51,335.29,382.90,286.74,406.85,288.21C430.81,289.68,314.10,324.23,333.39,309.96C352.68,295.69,285.49,397.17,291.10,373.84C296.70,350.51,310.47,471.44,299.76,449.96"/><path stroke="#000000" stroke-width="0.4mm" fill="none" d="M289.08,445.79C279.27,422.02,367.26,518.27,344.46,506.38C321.67,494.48,450.94,511.65,425.83,517.19C400.73,522.72,510.79,452.78,495.12,473.16C479.44,493.54,518.80,369.22,519.89,394.91C520.98,420.60,471.22,300.06,488.57,319.03C505.92,338.01,390.32,277.66,415.80,281.05C441.29,284.43,313.94,312.51,335.64,298.72C357.35,284.93,277.84,388.29,285.60,363.78C293.36,339.27,298.89,469.56,289.08,445.79"/><path stroke="#000000" stroke-width="0.4mm" fill="none" d="M279.89,444.25C270.41,418.52,360.24,524.72,336.44,511.10C312.63,497.48,449.71,521.10,422.72,525.97C395.73,530.84,515.92,460.81,498.38,481.89C480.83,502.97,527.89,372.07,528.00,399.50C528.11,426.92,480.02,296.40,497.73,317.34C515.44,338.28,394.71,269.20,421.73,273.86C448.76,278.51,311.87,303.21,335.57,289.40C359.26,275.59,270.27,382.50,279.55,356.69C288.83,330.89,289.37,469.98,279.89,444.25"/><path stroke="#000000" stroke-width="0.4mm" fill="none" d="M272.54,447.43C262.38,420.12,358.19,532.65,332.85,518.26C307.51,503.88,453.24,528.50,424.58,533.76C395.92,539.03,523.38,464.21,504.81,486.67C486.24,509.13,535.79,369.89,536.00,399.03C536.21,428.16,484.66,289.65,503.55,311.84C522.44,334.02,393.92,261.05,422.66,265.90C451.39,270.75,306.03,297.46,331.16,282.71C356.29,267.96,262.10,381.86,271.87,354.40C281.64,326.95,282.70,474.74,272.54,447.43"/><path stroke="#000000" stroke-width="0.4mm" fill="none" d="M267.39,456.14C255.36,427.72,361.98,542.28,334.50,528.24C307.02,514.21,462.33,533.43,432.26,540.34C402.19,547.25,533.51,462.15,514.92,486.77C496.33,511.40,542.22,361.79,543.81,392.60C545.39,423.42,484.39,279.31,505.41,301.89C526.43,324.48,387.07,253.30,417.69,257.09C448.31,260.88,295.80,295.93,321.69,279.16C347.58,262.38,253.28,387.26,262.33,357.77C271.38,328.27,279.42,484.55,267.39,456.14"/><path stroke="#000000" stroke-width="0.4mm" fill="none" d="M264.82,469.49C249.93,440.53,371.14,552.75,341.11,540.13C311.09,527.51,476.07,535.56,444.96,545.20C413.85,554.83,545.41,454.95,527.77,482.33C510.14,509.70,546.71,348.62,550.80,380.93C554.88,413.24,479.37,266.34,503.26,288.46C527.16,310.59,374.88,246.59,407.41,248.18C439.94,249.77,282.15,298.63,308.09,278.94C334.03,259.24,244.56,398.10,251.77,366.34C258.99,334.58,279.71,498.46,264.82,469.49"/><path stroke="#000000" stroke-width="0.4mm" fill="none" d="M264.54,485.14C246.29,456.12,383.59,562.81,350.96,552.30C318.33,541.79,492.08,535.26,460.33,548.19C428.58,561.12,557.48,444.43,541.47,474.74C525.45,505.05,549.20,332.81,556.42,366.32C563.63,399.84,471.10,252.62,498.17,273.66C525.24,294.69,359.74,241.40,393.99,240.11C428.25,238.83,267.21,304.39,292.63,281.38C318.04,258.37,236.82,412.11,241.50,378.15C246.18,344.19,282.78,514.17,264.54,485.14"/><path stroke="#000000" stroke-width="0.4mm" fill="none" d="M265.07,500.09C243.63,471.19,395.99,571.77,360.98,563.41C325.97,555.05,507.34,534.16,475.14,550.26C442.95,566.36,568.46,433.77,554.15,466.80C539.83,499.83,550.76,317.59,561.02,352.09C571.29,386.59,462.51,239.96,492.55,259.79C522.60,279.63,345.02,237.22,380.78,233.10C416.54,228.98,253.25,310.65,278.00,284.51C302.74,258.36,230.15,425.88,232.30,389.95C234.45,354.02,286.52,529.00,265.07,500.09"/><path stroke="#000000" stroke-width="0.4mm" fill="none" d="M263.96,511.67C240.03,482.52,404.63,579.94,367.56,572.99C330.50,566.04,519.21,534.86,486.35,553.36C453.49,571.86,578.01,426.69,564.72,461.98C551.44,497.28,553.51,306.02,566.03,341.60C578.54,377.17,457.19,229.33,489.64,248.54C522.10,267.75,334.11,232.50,371.32,226.35C408.52,220.21,241.86,314.04,266.41,285.42C290.96,256.79,223.60,435.80,224.01,398.10C224.42,360.39,287.89,540.81,263.96,511.67"/><path stroke="#000000" stroke-width="0.4mm" fill="none" d="M258.83,518.01C233.54,487.76,406.52,588.06,367.71,581.14C328.90,574.23,525.88,539.87,491.70,559.52C457.52,579.17,586.34,426.23,572.79,463.25C559.23,500.27,559.60,300.32,573.02,337.39C586.44,374.46,458.19,221.05,492.30,240.82C526.40,260.60,329.55,225.51,368.39,218.74C407.22,211.96,233.87,311.62,259.27,281.47C284.67,251.31,215.93,439.08,216.00,399.66C216.07,360.23,284.11,548.26,258.83,518.01"/><path stroke="#000000" stroke-width="0.4mm" fill="none" d="M248.67,518.17C223.35,485.74,400.27,596.36,360.03,587.79C319.79,579.23,526.42,550.25,490.09,569.55C453.77,588.85,593.42,433.83,578.00,471.97C562.58,510.11,569.92,301.59,582.62,340.72C595.32,379.85,466.91,215.39,501.79,237.20C536.67,259.01,332.59,215.58,373.33,209.86C414.07,204.15,229.82,302.05,257.35,271.49C284.89,240.92,206.67,434.36,208.12,393.25C209.57,352.14,273.99,550.59,248.67,518.17"/><path stroke="#000000" stroke-width="0.4mm" fill="none" d="M234.43,512.19C210.39,476.71,386.50,604.09,345.28,592.37C304.06,580.64,520.84,565.02,481.73,582.54C442.62,600.05,598.65,448.74,579.94,487.29C561.24,525.85,583.50,309.65,593.96,351.21C604.41,392.76,482.49,212.83,517.21,237.95C551.94,263.06,342.89,203.60,385.63,200.52C428.37,197.44,230.00,286.26,260.76,256.43C291.53,226.59,196.66,422.14,201.05,379.52C205.44,336.89,258.47,547.66,234.43,512.19"/><path stroke="#000000" stroke-width="0.4mm" fill="none" d="M218.52,501.63C196.74,462.74,367.98,610.30,326.30,594.51C284.63,578.72,510.65,581.68,468.57,596.37C426.50,611.06,601.54,468.05,578.75,506.35C555.97,544.65,598.13,322.58,605.30,366.57C612.46,410.56,502.02,213.34,535.78,242.43C569.54,271.52,358.17,191.43,402.73,192.02C447.29,192.60,233.89,267.12,268.40,238.92C302.91,210.73,187.34,404.98,195.65,361.20C203.97,317.41,240.29,540.51,218.52,501.63"/><path stroke="#000000" stroke-width="0.4mm" fill="none" d="M203.54,489.78C184.31,447.69,349.01,614.94,307.21,595.06C265.42,575.17,499.09,597.43,454.30,609.06C409.51,620.70,602.82,487.54,575.98,525.25C549.14,562.95,611.64,336.69,615.32,382.83C619.00,428.96,521.43,215.47,553.90,248.44C586.38,281.42,374.41,180.59,420.48,184.97C466.55,189.36,239.36,248.37,277.47,222.12C315.58,195.86,179.47,387.10,191.80,342.49C204.12,297.88,222.78,531.87,203.54,489.78"/><path stroke="#000000" stroke-width="0.4mm" fill="none" d="M191.16,481.01C173.81,436.27,334.16,619.42,292.10,596.30C250.04,573.18,490.60,610.41,443.52,619.73C396.44,629.06,604.65,502.94,574.58,540.35C544.51,577.76,622.94,347.31,623.95,395.30C624.96,443.28,536.92,216.33,568.53,252.44C600.15,288.55,386.83,171.30,434.26,178.64C481.69,185.98,242.90,233.27,283.95,208.40C325.00,183.54,172.48,373.26,187.95,327.82C203.41,282.39,208.52,525.76,191.16,481.01"/><path stroke="#000000" stroke-width="0.4mm" fill="none" d="M181.99,479.35C164.99,432.64,327.05,625.77,284.00,600.92C240.95,576.06,489.24,619.84,440.29,628.48C391.33,637.11,609.67,511.05,577.72,549.13C545.77,587.21,632.00,350.29,632.00,400.00C632.00,449.71,545.77,212.79,577.72,250.87C609.67,288.95,391.33,162.89,440.29,171.52C489.24,180.16,240.95,223.94,284.00,199.08C327.05,174.23,164.99,367.36,181.99,320.65C198.99,273.94,198.99,526.06,181.99,479.35"/><path stroke="#000000" stroke-width="0.4mm" fill="none" d="M176.31,486.97C157.68,439.04,329.63,635.14,284.55,610.41C239.46,585.67,497.24,625.36,446.80,635.39C396.37,645.42,619.35,510.13,587.16,550.24C554.97,590.34,638.83,343.37,639.94,394.78C641.06,446.19,546.55,203.11,580.45,241.77C614.36,280.44,385.70,154.97,436.53,162.80C487.35,170.62,231.55,221.48,275.51,194.81C319.47,168.14,156.21,371.53,172.74,322.84C189.28,274.14,194.95,534.90,176.31,486.97"/><path stroke="#000000" stroke-width="0.4mm" fill="none" d="M174.57,503.37C152.42,455.07,341.77,646.85,293.76,624.09C245.74,601.33,514.07,626.53,462.66,639.95C411.24,653.38,632.99,500.21,602.24,543.54C571.48,586.87,642.90,327.00,647.19,379.96C651.48,432.93,539.15,187.95,576.48,225.76C613.81,263.57,370.29,148.12,423.19,153.09C476.10,158.06,215.33,226.15,259.05,195.95C302.77,165.75,146.78,385.52,160.86,334.29C174.95,283.05,196.72,551.67,174.57,503.37"/><path stroke="#000000" stroke-width="0.4mm" fill="none" d="M176.83,525.43C149.96,477.61,360.99,658.89,309.66,639.53C258.34,620.18,536.52,623.40,484.77,641.56C433.01,659.72,648.18,483.38,620.21,530.56C592.23,577.74,643.71,304.34,652.61,358.47C661.51,412.59,525.21,170.07,566.81,205.81C608.42,241.55,348.12,143.38,402.96,144.02C457.81,144.65,195.30,236.77,237.73,202.00C280.15,167.23,138.27,406.53,148.42,352.63C158.57,298.73,203.70,573.24,176.83,525.43"/><path stroke="#000000" stroke-width="0.4mm" fill="none" d="M181.66,548.40C149.86,501.61,382.55,669.43,328.13,654.03C273.70,638.63,559.82,617.61,508.23,640.80C456.63,663.99,662.31,463.97,637.69,514.89C613.07,565.82,642.05,280.39,655.93,335.23C669.81,390.07,508.54,152.79,554.42,185.87C600.30,218.96,324.24,140.85,380.66,136.71C437.07,132.57,175.39,250.18,215.94,210.74C256.49,171.30,131.64,429.60,137.35,373.33C143.07,317.05,213.45,595.18,181.66,548.40"/><path stroke="#000000" stroke-width="0.4mm" fill="none" d="M185.77,567.60C149.86,521.70,400.64,678.17,343.62,666.09C286.61,654.01,579.29,612.68,527.85,640.08C476.42,667.47,674.06,447.68,652.26,501.73C630.47,555.78,640.59,260.36,658.63,315.78C676.68,371.19,494.54,138.39,543.99,169.24C593.43,200.09,304.26,138.82,361.97,130.67C419.67,122.52,158.78,261.47,197.74,218.13C236.71,174.79,126.16,448.93,128.16,390.69C130.15,332.44,221.68,613.50,185.77,567.60"/><path stroke="#000000" stroke-width="0.4mm" fill="none" d="M185.21,579.63C146.73,533.61,409.99,686.18,350.93,675.67C291.86,665.15,591.61,612.80,539.60,642.72C487.60,672.63,683.57,439.86,662.96,496.20C642.35,552.54,642.84,248.26,663.27,304.67C683.70,361.07,488.49,127.66,540.40,157.74C592.30,187.82,292.73,134.50,351.83,124.17C410.93,113.85,147.16,265.56,185.80,219.67C224.44,173.77,119.90,459.53,120.00,399.54C120.10,339.55,223.70,625.65,185.21,579.63"/><path stroke="#000000" stroke-width="0.4mm" fill="none" d="M177.29,582.60C138.16,534.89,407.41,694.44,346.77,683.04C286.13,671.63,594.94,620.79,541.16,651.04C487.37,681.28,691.26,443.83,669.49,501.57C647.73,559.31,651.29,246.36,671.73,304.58C692.18,362.80,493.74,120.78,546.82,152.24C599.91,183.70,292.33,125.85,353.22,115.83C414.10,105.80,141.30,259.20,181.50,212.38C221.70,165.57,111.32,458.43,112.02,396.73C112.72,335.02,216.42,630.32,177.29,582.60"/><path stroke="#000000" stroke-width="0.4mm" fill="none" d="M162.07,576.08C124.34,525.10,392.58,702.63,330.91,687.82C269.24,673.02,588.84,636.59,532.09,664.89C475.33,693.20,696.74,459.85,671.46,518.02C646.17,576.18,665.79,255.11,683.81,315.92C701.82,376.73,510.47,118.16,563.36,153.16C616.25,188.16,303.46,113.09,366.48,105.90C429.49,98.72,141.62,242.26,185.28,196.26C228.93,150.25,100.68,445.25,104.55,381.94C108.42,318.64,199.79,627.06,162.07,576.08"/><path stroke="#000000" stroke-width="0.4mm" fill="none" d="M142.38,561.39C107.80,506.19,368.36,709.29,306.39,689.23C244.41,669.17,574.56,657.27,514.20,681.74C453.83,706.20,699.09,484.87,668.58,542.42C638.06,599.96,683.67,272.76,697.29,336.46C710.90,400.16,535.52,120.19,586.89,160.23C638.26,200.28,323.95,98.54,389.05,96.20C454.14,93.85,147.97,217.95,196.33,174.31C244.69,130.67,89.92,422.54,98.91,358.03C107.90,293.52,176.95,616.59,142.38,561.39"/><path stroke="#000000" stroke-width="0.4mm" fill="none" d="M122.31,542.23C91.83,482.73,340.29,713.44,278.70,687.45C217.11,661.46,555.74,678.49,491.85,698.17C427.96,717.85,698.31,513.23,662.02,569.37C625.73,625.52,701.31,294.99,709.59,361.32C717.88,427.66,563.31,125.88,612.30,171.37C661.29,216.86,348.91,85.04,415.67,88.39C482.44,91.75,158.40,191.57,211.71,151.22C265.01,110.88,80.95,395.63,95.85,330.46C110.75,265.29,152.78,601.73,122.31,542.23"/><path stroke="#000000" stroke-width="0.4mm" fill="none" d="M105.18,524.43C78.52,461.26,315.16,716.08,254.14,684.82C193.11,653.57,538.18,696.66,471.34,711.95C404.50,727.23,696.54,538.43,655.17,593.11C613.79,647.78,716.15,315.43,719.60,383.91C723.04,452.39,587.82,132.00,634.48,182.24C681.14,232.48,371.62,73.97,439.65,82.47C507.69,90.96,168.69,168.49,226.27,131.27C283.85,94.04,73.99,371.34,94.18,305.81C114.36,240.29,131.84,587.60,105.18,524.43"/><path stroke="#000000" stroke-width="0.4mm" fill="none" d="M92.54,514.26C68.06,448.38,299.02,719.88,237.92,685.15C176.82,650.43,528.26,709.96,459.13,722.63C390.00,735.30,697.49,555.00,652.68,609.14C607.87,663.28,727.52,327.51,727.99,397.79C728.47,468.07,604.30,133.95,649.84,187.48C695.37,241.01,385.49,64.87,454.78,76.61C524.07,88.34,173.47,152.60,234.09,117.06C294.71,81.51,67.44,356.10,91.03,289.90C114.62,223.70,117.02,580.13,92.54,514.26"/><path stroke="#000000" stroke-width="0.4mm" fill="none" d="M84.76,516.26C59.84,448.72,295.74,727.43,233.24,691.70C170.74,655.97,530.60,717.84,459.75,730.64C388.91,743.45,704.35,559.53,658.31,614.88C612.27,670.23,735.69,326.58,736.00,398.57C736.30,470.56,609.96,127.98,656.47,182.93C702.98,237.88,385.99,56.66,456.94,68.86C527.89,81.06,168.57,145.99,230.76,109.73C292.96,73.47,59.44,354.18,83.78,286.43C108.11,218.67,109.67,583.81,84.76,516.26"/><path stroke="#000000" stroke-width="0.4mm" fill="none" d="M82.16,531.59C53.97,463.49,306.48,739.15,241.11,705.10C175.73,671.06,546.36,719.92,474.40,735.86C402.44,751.80,717.76,550.99,672.88,609.46C628.00,667.93,740.47,311.42,743.68,385.05C746.88,458.69,603.88,113.29,653.66,167.64C703.45,221.99,371.89,49.32,444.96,58.95C518.03,68.58,153.05,149.43,215.22,109.84C277.39,70.25,49.76,366.79,71.94,296.50C94.12,226.21,110.36,599.69,82.16,531.59"/><path stroke="#000000" stroke-width="0.4mm" fill="none" d="M85.19,557.47C51.45,490.02,329.27,752.97,260.06,722.99C190.86,693.01,572.70,715.86,500.42,737.37C428.13,758.89,735.33,530.95,693.78,593.90C652.24,656.84,741.05,284.77,749.68,359.69C758.32,434.62,587.19,92.51,641.97,144.35C696.74,196.19,345.74,44.12,421.03,48.63C496.31,53.13,129.68,162.26,190.25,117.32C250.82,72.38,40.11,391.64,57.62,318.28C75.13,244.92,118.93,624.93,85.19,557.47"/><path stroke="#000000" stroke-width="0.4mm" fill="none" d="M93.05,588.09C52.74,522.32,358.91,765.87,285.76,741.39C212.62,716.92,603.70,706.68,531.93,734.95C460.17,763.22,753.18,504.00,716.37,571.78C679.56,639.57,737.40,252.65,752.77,328.24C768.15,403.82,563.75,70.25,624.11,118.27C684.48,166.28,313.48,42.14,390.58,40.12C467.69,38.11,103.69,181.48,161.46,130.37C219.23,79.26,32.55,423.07,43.96,346.78C55.36,270.49,133.35,653.86,93.05,588.09"/></g></svg>